<?xml version="1.0" standalone="no"?>
<!DOCTYPE svg PUBLIC "-//W3C//DTD SVG 20010904//EN"
 "http://www.w3.org/TR/2001/REC-SVG-20010904/DTD/svg10.dtd">
<svg version="1.0" xmlns="http://www.w3.org/2000/svg"
 width="463.000000pt" height="463.000000pt" viewBox="0 0 463.000000 463.000000"
 preserveAspectRatio="xMidYMid meet">
<metadata>
Created by potrace 1.14, written by Peter Selinger 2001-2017
</metadata>
<g transform="translate(0.000000,463.000000) scale(0.100000,-0.100000)"
fill="#000000" stroke="none">
<path d="M2040 3836 c0 -2 8 -10 18 -17 15 -13 16 -12 3 4 -13 16 -21 21 -21
13z"/>
<path d="M1807 3633 c-3 -3 -21 -7 -39 -9 -18 -2 -43 -6 -55 -9 -13 -3 -23 -1
-23 6 0 6 -7 3 -16 -5 -17 -17 -39 -12 -28 6 4 7 2 8 -5 4 -6 -4 -9 -12 -6
-17 4 -5 -3 -9 -15 -9 -12 0 -30 -5 -41 -10 -14 -8 -19 -7 -19 2 0 10 -2 10
-9 -1 -5 -8 -14 -10 -21 -6 -9 6 -11 4 -5 -5 6 -10 1 -12 -18 -8 -15 3 -24 1
-21 -3 3 -5 0 -10 -5 -10 -33 -4 -127 -46 -204 -91 -27 -16 -54 -25 -60 -22
-7 4 -9 4 -5 -1 10 -10 -39 -48 -52 -40 -6 4 -9 2 -8 -3 2 -6 -1 -12 -6 -13
-14 -6 -69 -55 -138 -126 -34 -34 -65 -60 -70 -57 -4 3 -5 -2 -2 -10 4 -11 0
-16 -12 -16 -9 0 -15 -3 -11 -6 8 -9 -43 -75 -53 -69 -4 3 -7 -3 -6 -13 0 -9
-5 -16 -12 -14 -8 1 -11 -2 -7 -8 7 -12 -25 -70 -39 -70 -5 0 -7 -3 -3 -6 6
-7 -28 -80 -51 -106 -8 -10 -12 -18 -8 -18 4 0 2 -9 -4 -21 -6 -11 -13 -30
-15 -41 -3 -12 -8 -24 -12 -27 -5 -3 -8 -10 -9 -16 -1 -20 -17 -90 -23 -100
-7 -12 -9 -23 -17 -100 -4 -33 -12 -63 -18 -67 -8 -5 -7 -8 2 -8 7 0 10 -5 6
-12 -9 -14 -8 -188 1 -323 10 -134 10 -134 24 -178 7 -21 10 -44 7 -52 -3 -8
-2 -15 3 -15 4 0 13 -19 20 -42 11 -40 16 -53 41 -110 5 -13 11 -30 12 -38 2
-8 6 -17 10 -20 3 -3 8 -11 10 -19 2 -8 13 -25 25 -38 12 -14 21 -28 20 -32
-1 -4 27 -47 63 -96 36 -49 64 -92 62 -97 -1 -5 1 -7 6 -4 12 7 54 -38 45 -49
-5 -4 -3 -5 3 -2 6 3 25 -9 42 -28 16 -19 33 -35 37 -35 3 0 16 -9 28 -20 64
-60 308 -200 350 -200 9 0 17 -4 17 -8 0 -5 6 -9 13 -9 6 0 37 -7 68 -16 64
-19 94 -25 127 -26 15 -1 21 -5 16 -12 -5 -8 -2 -9 11 -1 11 6 30 6 47 1 33
-9 289 -5 328 5 14 3 39 8 55 10 17 3 38 8 49 12 11 4 21 2 27 -7 7 -11 9 -10
9 5 0 14 6 17 25 14 13 -3 22 -1 19 3 -4 8 10 11 32 8 4 0 10 3 13 8 3 4 33
19 66 32 33 13 87 39 121 57 33 19 64 31 69 26 5 -4 6 -2 2 4 -3 5 12 21 34
34 21 14 39 28 39 32 0 5 5 8 11 8 6 0 29 17 51 38 22 20 44 36 49 34 5 -1 8
1 8 5 -3 21 3 24 19 12 15 -12 16 -12 5 2 -11 13 -7 21 25 51 20 19 44 46 52
58 8 12 22 30 31 39 9 9 22 26 28 39 7 12 17 20 23 16 7 -4 8 -3 4 5 -4 6 1
23 12 39 10 15 34 59 52 97 19 39 36 72 39 75 3 3 6 11 7 18 2 28 4 33 13 28
5 -4 7 3 4 14 -3 12 0 20 6 20 7 0 9 5 6 10 -3 5 -3 16 1 22 5 7 9 19 10 28 1
8 7 38 14 65 17 70 19 86 24 141 3 27 5 49 6 49 5 0 0 286 -6 345 -4 41 -8 82
-8 90 -1 9 -5 20 -8 25 -3 6 -9 28 -13 50 -4 22 -16 66 -27 97 -11 32 -16 63
-12 69 4 8 3 9 -4 5 -11 -6 -14 0 -11 20 0 4 -5 11 -13 15 -11 7 -11 12 1 31
13 21 13 22 -1 10 -13 -11 -19 -6 -36 29 -12 23 -18 47 -15 52 3 6 1 7 -5 3
-7 -4 -12 -2 -12 4 0 6 -5 16 -10 23 -43 51 -118 162 -114 169 3 5 2 7 -3 6
-14 -5 -83 64 -76 76 3 6 3 8 -1 4 -5 -4 -19 4 -33 18 -13 13 -29 24 -35 24
-5 0 -7 7 -4 16 3 8 2 13 -3 10 -8 -5 -150 88 -162 106 -3 5 -8 9 -10 9 -17
-2 -47 13 -42 22 3 6 1 7 -5 3 -14 -8 -55 12 -48 23 3 4 -6 6 -19 3 -15 -2
-25 0 -25 7 0 6 -8 11 -18 11 -10 0 -22 3 -26 8 -4 4 -11 7 -14 8 -36 5 -100
30 -95 37 3 6 1 7 -5 3 -6 -3 -44 1 -84 9 -40 9 -126 18 -191 21 -66 2 -122 6
-127 9 -4 2 -10 2 -13 -2z m243 -218 c25 -5 48 -8 53 -7 4 1 7 -2 7 -7 0 -5 9
-7 20 -4 12 3 20 0 20 -6 0 -7 4 -10 9 -7 5 4 22 1 38 -6 15 -6 31 -11 35 -10
4 1 26 -5 48 -14 27 -11 39 -21 36 -30 -3 -7 0 -16 6 -20 6 -4 8 -3 4 4 -8 13
14 28 23 16 3 -5 28 -20 55 -34 73 -36 157 -100 150 -112 -4 -6 -3 -8 3 -5 15
10 117 -88 108 -103 -5 -8 -4 -11 3 -6 9 6 82 -72 82 -88 0 -4 9 -17 20 -29
11 -12 18 -28 15 -36 -3 -9 -3 -12 1 -8 9 9 56 -72 49 -83 -3 -5 -1 -10 5 -12
15 -5 73 -178 86 -258 3 -14 7 -105 9 -202 4 -159 2 -179 -13 -189 -16 -10
-15 -10 1 -5 14 4 17 2 13 -12 -3 -9 -8 -39 -12 -67 -4 -27 -14 -56 -23 -63
-9 -8 -10 -11 -3 -7 14 7 17 -11 2 -20 -6 -4 -8 -10 -5 -15 5 -7 -24 -99 -35
-110 -3 -3 -6 -12 -8 -20 -5 -26 -55 -120 -64 -120 -4 0 -7 -6 -6 -12 2 -7 -3
-12 -10 -10 -8 1 -11 -2 -7 -8 4 -6 -13 -36 -37 -67 -53 -70 -148 -170 -148
-157 0 5 -5 1 -11 -9 -20 -33 -259 -181 -259 -160 0 5 -4 3 -8 -3 -13 -19 -68
-34 -81 -21 -9 9 -11 8 -6 -4 4 -10 0 -19 -10 -23 -11 -4 -14 -2 -9 7 6 9 5 9
-7 0 -8 -7 -30 -15 -49 -18 -18 -3 -37 -8 -41 -11 -41 -25 -417 -20 -427 6 -2
5 -9 7 -16 4 -20 -8 -177 47 -169 59 3 6 1 7 -5 3 -13 -8 -152 60 -152 75 0 5
-4 8 -9 4 -6 -3 -14 3 -20 12 -6 10 -11 14 -11 10 0 -13 -78 51 -148 121 -34
35 -59 68 -56 73 3 5 0 8 -8 7 -7 -2 -13 6 -13 17 -1 11 -6 19 -13 18 -6 -2
-19 12 -28 30 -9 17 -20 34 -24 37 -4 3 -16 23 -27 45 -10 22 -24 49 -30 60
-32 60 -73 180 -77 230 -2 17 -6 37 -10 44 -4 7 -5 18 -2 26 3 8 1 17 -5 21
-7 4 -6 10 1 19 8 10 8 15 -1 21 -9 5 -7 11 7 22 16 13 17 14 1 9 -16 -6 -17
4 -12 156 5 185 6 199 29 285 9 35 16 66 16 69 0 3 7 2 16 -1 14 -5 15 -4 5 8
-13 16 -7 38 40 131 40 80 125 201 138 197 6 -1 10 2 9 7 -5 14 42 72 53 66 5
-4 8 -2 7 3 -4 14 43 53 55 45 5 -3 7 -1 3 5 -3 6 6 20 21 31 16 11 34 26 41
31 6 6 12 7 12 3 0 -4 5 0 11 10 6 9 14 15 20 12 5 -4 9 -2 9 4 0 6 17 18 38
27 20 10 45 24 55 32 9 8 17 12 17 7 0 -4 6 -2 13 4 16 12 147 63 147 56 0 -2
18 2 40 10 22 8 66 17 97 21 32 3 59 7 61 9 6 5 211 -3 252 -10z"/>
<path d="M1950 3390 c0 -5 5 -10 11 -10 5 0 7 5 4 10 -3 6 -8 10 -11 10 -2 0
-4 -4 -4 -10z"/>
<path d="M2031 3383 c7 -12 15 -20 18 -17 3 2 -3 12 -13 22 -17 16 -18 16 -5
-5z"/>
<path d="M1765 3349 c-3 -4 2 -6 10 -5 21 3 28 13 10 13 -9 0 -18 -4 -20 -8z"/>
<path d="M1500 3330 c8 -5 20 -10 25 -10 6 0 3 5 -5 10 -8 5 -19 10 -25 10 -5
0 -3 -5 5 -10z"/>
<path d="M1906 3312 c-3 -5 1 -9 9 -9 8 0 12 4 9 9 -3 4 -7 8 -9 8 -2 0 -6 -4
-9 -8z"/>
<path d="M1509 3273 c-13 -16 -12 -17 4 -4 16 13 21 21 13 21 -2 0 -10 -8 -17
-17z"/>
<path d="M2393 3255 c0 -8 4 -12 9 -9 5 3 6 10 3 15 -9 13 -12 11 -12 -6z"/>
<path d="M1390 3229 c0 -5 5 -7 10 -4 6 3 10 8 10 11 0 2 -4 4 -10 4 -5 0 -10
-5 -10 -11z"/>
<path d="M2496 3192 c-3 -5 1 -9 9 -9 8 0 12 4 9 9 -3 4 -7 8 -9 8 -2 0 -6 -4
-9 -8z"/>
<path d="M1230 3070 c0 -5 5 -10 11 -10 5 0 7 5 4 10 -3 6 -8 10 -11 10 -2 0
-4 -4 -4 -10z"/>
<path d="M1110 2996 c0 -2 7 -7 16 -10 8 -3 12 -2 9 4 -6 10 -25 14 -25 6z"/>
<path d="M2675 2990 c3 -5 8 -10 11 -10 2 0 4 5 4 10 0 6 -5 10 -11 10 -5 0
-7 -4 -4 -10z"/>
<path d="M2675 2910 c-3 -5 -1 -10 4 -10 6 0 11 5 11 10 0 6 -2 10 -4 10 -3 0
-8 -4 -11 -10z"/>
<path d="M2353 2875 c0 -8 4 -15 9 -15 4 0 8 4 8 9 0 6 -4 12 -8 15 -5 3 -9
-1 -9 -9z"/>
<path d="M996 2752 c-3 -5 1 -9 9 -9 8 0 12 4 9 9 -3 4 -7 8 -9 8 -2 0 -6 -4
-9 -8z"/>
<path d="M1076 2708 c3 -5 10 -6 15 -3 13 9 11 12 -6 12 -8 0 -12 -4 -9 -9z"/>
<path d="M1195 2679 c-4 -6 -5 -12 -2 -15 2 -3 7 2 10 11 7 17 1 20 -8 4z"/>
<path d="M2746 2672 c-3 -5 1 -9 9 -9 8 0 12 4 9 9 -3 4 -7 8 -9 8 -2 0 -6 -4
-9 -8z"/>
<path d="M2795 2501 c-3 -5 -2 -12 3 -15 5 -3 9 1 9 9 0 17 -3 19 -12 6z"/>
<path d="M916 2432 c-3 -5 1 -9 9 -9 8 0 12 4 9 9 -3 4 -7 8 -9 8 -2 0 -6 -4
-9 -8z"/>
<path d="M870 2390 c0 -5 5 -10 11 -10 5 0 7 5 4 10 -3 6 -8 10 -11 10 -2 0
-4 -4 -4 -10z"/>
<path d="M947 2349 c7 -7 15 -10 18 -7 3 3 -2 9 -12 12 -14 6 -15 5 -6 -5z"/>
<path d="M910 2191 c0 -6 4 -13 10 -16 6 -3 7 1 4 9 -7 18 -14 21 -14 7z"/>
<path d="M2876 2097 c3 -10 9 -15 12 -12 3 3 0 11 -7 18 -10 9 -11 8 -5 -6z"/>
<path d="M1035 2071 c-3 -5 -2 -12 3 -15 5 -3 9 1 9 9 0 17 -3 19 -12 6z"/>
<path d="M2625 1990 c-3 -6 1 -7 9 -4 18 7 21 14 7 14 -6 0 -13 -4 -16 -10z"/>
<path d="M915 1921 c-3 -5 -2 -12 3 -15 5 -3 9 1 9 9 0 17 -3 19 -12 6z"/>
<path d="M990 1871 c0 -6 4 -13 10 -16 6 -3 7 1 4 9 -7 18 -14 21 -14 7z"/>
<path d="M2435 1870 c-3 -5 -1 -10 4 -10 6 0 11 5 11 10 0 6 -2 10 -4 10 -3 0
-8 -4 -11 -10z"/>
<path d="M2816 1817 c3 -10 9 -15 12 -12 3 3 0 11 -7 18 -10 9 -11 8 -5 -6z"/>
<path d="M1076 1792 c-3 -5 1 -9 9 -9 8 0 12 4 9 9 -3 4 -7 8 -9 8 -2 0 -6 -4
-9 -8z"/>
<path d="M2706 1788 c3 -5 10 -6 15 -3 13 9 11 12 -6 12 -8 0 -12 -4 -9 -9z"/>
<path d="M2547 1669 c7 -7 15 -10 18 -7 3 3 -2 9 -12 12 -14 6 -15 5 -6 -5z"/>
<path d="M1556 1597 c3 -10 9 -15 12 -12 3 3 0 11 -7 18 -10 9 -11 8 -5 -6z"/>
<path d="M1675 1550 c3 -5 8 -10 11 -10 2 0 4 5 4 10 0 6 -5 10 -11 10 -5 0
-7 -4 -4 -10z"/>
<path d="M1870 1549 c0 -5 5 -7 10 -4 6 3 10 8 10 11 0 2 -4 4 -10 4 -5 0 -10
-5 -10 -11z"/>
<path d="M2515 1479 c-4 -6 -5 -12 -2 -15 2 -3 7 2 10 11 7 17 1 20 -8 4z"/>
<path d="M1395 1439 c-4 -6 -5 -12 -2 -15 2 -3 7 2 10 11 7 17 1 20 -8 4z"/>
<path d="M1587 1389 c7 -7 15 -10 18 -7 3 3 -2 9 -12 12 -14 6 -15 5 -6 -5z"/>
<path d="M2273 1385 c0 -8 4 -12 9 -9 5 3 6 10 3 15 -9 13 -12 11 -12 -6z"/>
<path d="M2355 1391 c-3 -5 -2 -12 3 -15 5 -3 9 1 9 9 0 17 -3 19 -12 6z"/>
<path d="M1910 1316 c0 -2 7 -7 16 -10 8 -3 12 -2 9 4 -6 10 -25 14 -25 6z"/>
<path d="M2035 1310 c-3 -5 -1 -10 4 -10 6 0 11 5 11 10 0 6 -2 10 -4 10 -3 0
-8 -4 -11 -10z"/>
<path d="M1909 1233 c-13 -16 -12 -17 4 -4 16 13 21 21 13 21 -2 0 -10 -8 -17
-17z"/>
<path d="M2716 3577 c3 -10 9 -15 12 -12 3 3 0 11 -7 18 -10 9 -11 8 -5 -6z"/>
<path d="M2790 3350 c0 -5 5 -10 11 -10 5 0 7 5 4 10 -3 6 -8 10 -11 10 -2 0
-4 -4 -4 -10z"/>
<path d="M506 2748 c3 -5 10 -6 15 -3 13 9 11 12 -6 12 -8 0 -12 -4 -9 -9z"/>
<path d="M3266 2112 c-3 -5 1 -9 9 -9 8 0 15 4 15 9 0 4 -4 8 -9 8 -6 0 -12
-4 -15 -8z"/>
<path d="M3073 1555 c0 -8 4 -12 9 -9 5 3 6 10 3 15 -9 13 -12 11 -12 -6z"/>
<path d="M2755 1150 c3 -5 8 -10 11 -10 2 0 4 5 4 10 0 6 -5 10 -11 10 -5 0
-7 -4 -4 -10z"/>
<path d="M1156 1077 c3 -10 9 -15 12 -12 3 3 0 11 -7 18 -10 9 -11 8 -5 -6z"/>
<path d="M1476 903 c-6 -14 -5 -15 5 -6 7 7 10 15 7 18 -3 3 -9 -2 -12 -12z"/>
<path d="M1396 868 c3 -5 10 -6 15 -3 13 9 11 12 -6 12 -8 0 -12 -4 -9 -9z"/>
<path d="M2150 846 c0 -2 8 -10 18 -17 15 -13 16 -12 3 4 -13 16 -21 21 -21
13z"/>
<path d="M1970 790 c0 -5 5 -10 11 -10 5 0 7 5 4 10 -3 6 -8 10 -11 10 -2 0
-4 -4 -4 -10z"/>
</g>
</svg>
